<svg id="Layer_1" data-name="Layer 1" xmlns="http://www.w3.org/2000/svg" viewBox="0 0 2200 685"><defs><style>.cls-1{fill:#00142e;}</style></defs><title>MIDNIGHT_Checkout_logo</title><path class="cls-1" d="M281.05,443.78l50.58-88.2,50.5,88.24Zm-11.2-196.16,54.29,94.88-54.38,94.82L214,342.44Zm61.79,81.81-50.49-88.25,101.07,0Zm7.49,13.07L399.08,238a6.49,6.49,0,0,0-5.63-9.73L270,228.17h0a6.48,6.48,0,0,0-5.6,3.2L200.9,339.14a6.51,6.51,0,0,0,0,6.59l63.33,107.84a6.54,6.54,0,0,0,5.6,3.21h.05l123.47.05a6.5,6.5,0,0,0,5.65-9.72Z"/><path class="cls-1" d="M1550.86,391.66a18.06,18.06,0,1,1-18-18.06,18.07,18.07,0,0,1,18,18.06"/><path class="cls-1" d="M504.86,404.27A60.38,60.38,0,0,1,484.42,390a63.52,63.52,0,0,1-13-21.32,74.73,74.73,0,0,1-4.57-26.4,76.31,76.31,0,0,1,4.48-26.4,63,63,0,0,1,12.77-21.3,59.62,59.62,0,0,1,20-14.25,63.86,63.86,0,0,1,26.27-5.2,67.4,67.4,0,0,1,22.31,3.48,55.23,55.23,0,0,1,17.23,9.56,48.91,48.91,0,0,1,11.89,14.63,61,61,0,0,1,6.3,19l-33,0a25.51,25.51,0,0,0-7.81-14q-6.06-5.58-15.49-5.59-15.36,0-23,10.77t-7.7,29.37q0,18.1,7.3,29.13t22.92,11.05c7,0,12.64-1.78,17.11-5.32s7.27-9,8.43-16.23h32.48a50.64,50.64,0,0,1-16.75,34.33,54.48,54.48,0,0,1-17.61,10.39A64.69,64.69,0,0,1,532,409.49a67.73,67.73,0,0,1-27.15-5.22"/><path class="cls-1" d="M641.72,295.26q7-10.15,15.38-15.11t21.57-4.95a43.72,43.72,0,0,1,18,3.6,40.6,40.6,0,0,1,13.75,9.92,46.16,46.16,0,0,1,8.92,15,54.38,54.38,0,0,1,3.21,19.08l0,83H688.77l0-78.09q0-10.41-5.68-16.86t-16.37-6.45a23.91,23.91,0,0,0-18.47,8Q641,320.55,641,333.68l0,72.14-33.71,0,.08-177.23H641l0,66.68Z"/><path class="cls-1" d="M783.36,308.59q-6.95,7.32-9.18,20l56.52,0q-.75-12.15-8.05-19.72t-19-7.57q-13.4,0-20.33,7.31m-5.13,95.81a59.78,59.78,0,0,1-20.69-14.27,60.49,60.49,0,0,1-12.76-21.45,79.73,79.73,0,0,1-4.32-26.52,74.65,74.65,0,0,1,4.6-26.39A63,63,0,0,1,758,294.58a60.69,60.69,0,0,1,45.25-19.32q15.36,0,27,5.59A54.18,54.18,0,0,1,849.8,296.6a71.6,71.6,0,0,1,12,24.17,111.09,111.09,0,0,1,4.08,31.12l-92.22-.05q2,14.87,10,23.31t22.43,8.44q9.92,0,15.87-4.21a24.12,24.12,0,0,0,8.68-11.4l33.21,0a49.85,49.85,0,0,1-6.32,16,48.92,48.92,0,0,1-11.91,13.26,58,58,0,0,1-17.23,9,68.75,68.75,0,0,1-22.06,3.33q-15.87,0-28.14-5.21"/><path class="cls-1" d="M916.23,404.46a60.38,60.38,0,0,1-20.44-14.27,63.36,63.36,0,0,1-13-21.32,74.73,74.73,0,0,1-4.57-26.4,76.54,76.54,0,0,1,4.47-26.4,63.06,63.06,0,0,1,12.78-21.3,59.62,59.62,0,0,1,20-14.25,63.7,63.7,0,0,1,26.27-5.2A67.29,67.29,0,0,1,964,278.8a55.23,55.23,0,0,1,17.23,9.56A48.36,48.36,0,0,1,993.12,303a60.78,60.78,0,0,1,6.31,19l-33,0a25.51,25.51,0,0,0-7.81-14q-6.06-5.58-15.49-5.59-15.36,0-23,10.77t-7.7,29.37q0,18.11,7.3,29.13t22.92,11.05q10.43,0,17.1-5.32t8.44-16.23h32.48a50.75,50.75,0,0,1-16.75,34.33,54.59,54.59,0,0,1-17.61,10.39,64.7,64.7,0,0,1-22.93,3.84,67.68,67.68,0,0,1-27.14-5.22"/><polygon class="cls-1" points="1018.59 405.99 1052.05 406.01 1052.08 363.13 1066.71 348.01 1102.38 406.04 1143.28 406.05 1090.75 327.2 1137.63 278.89 1097.22 278.86 1052.08 326.94 1052.14 228.77 1018.67 228.76 1018.59 405.99"/><path class="cls-1" d="M1231.26,372.63q8.31-11.4,8.32-30t-8.29-30.12Q1223,301,1207.37,301t-23.92,11.51q-8.31,11.53-8.32,30.12t8.29,30q8.3,11.41,23.91,11.42t23.93-11.39m-51,31.95A63.14,63.14,0,0,1,1145.74,369a74.49,74.49,0,0,1,0-52.8,63.1,63.1,0,0,1,34.59-35.55,72.8,72.8,0,0,1,54,0A63.08,63.08,0,0,1,1269,316.25a74.45,74.45,0,0,1,0,52.81,63.08,63.08,0,0,1-34.6,35.55,72.71,72.71,0,0,1-54,0"/><path class="cls-1" d="M1372.55,391.28h-.75a49.27,49.27,0,0,1-14.75,13.51q-8.31,4.83-21.69,4.82-21.31,0-32.72-12.41t-11.39-33.47l0-84.78,33.47,0,0,79.08q0,11.15,5.08,17.1t16,6q11.9,0,18.72-8.05t6.82-20.69l0-73.38,33.71,0L1405,406.17h-32.47Z"/><path class="cls-1" d="M1437.84,279l0-39.66,33,0V279h21.8v22.31h-21.81l0,67.42q0,7.19,3.47,9.92a14.4,14.4,0,0,0,9.17,2.73h6.45a25.51,25.51,0,0,0,3.47-.24l0,24.79c-1.65.16-3.47.24-5.45.24-1.82.16-4.06.24-6.7.24h-8.92a56.41,56.41,0,0,1-12.27-1.36,30.93,30.93,0,0,1-11-4.85,25.47,25.47,0,0,1-8-9.42q-3.11-6-3.1-14.87l0-74.62h-17.6V279Z"/><path class="cls-1" d="M1599.45,404.4a52,52,0,0,1-18.21-14.13A62.68,62.68,0,0,1,1570,368.94a88.49,88.49,0,0,1-3.83-26.65,86,86,0,0,1,4-26.64,64.08,64.08,0,0,1,11.41-21.31,51.61,51.61,0,0,1,18.35-14.13,58.14,58.14,0,0,1,24.79-5.07q21.32,0,34.82,10.93t16.72,30.74h-15.37q-2.71-14.37-12-21.57T1624.67,288q-11.16,0-19.22,4.33A38.26,38.26,0,0,0,1592.19,304a50.59,50.59,0,0,0-7.7,17.22A86.78,86.78,0,0,0,1582,342.3a81.09,81.09,0,0,0,2.59,20.95,53.88,53.88,0,0,0,7.8,17.23,36.9,36.9,0,0,0,13.13,11.65q7.93,4.23,18.84,4.23,16.35,0,26.15-9.28t11.79-24.91h14.63q-2.25,21.81-15.88,34.57t-36.7,12.75q-14.13,0-24.91-5.1"/><path class="cls-1" d="M1768.82,392.46a38.66,38.66,0,0,0,13.64-11.64,52.79,52.79,0,0,0,8.18-17.35,82.71,82.71,0,0,0,0-42.15,52.78,52.78,0,0,0-8.17-17.35,38.56,38.56,0,0,0-13.63-11.65,44.46,44.46,0,0,0-37.81,0,40.06,40.06,0,0,0-13.63,11.64,51.38,51.38,0,0,0-8.32,17.35,82.78,82.78,0,0,0,0,42.13,51.06,51.06,0,0,0,8.29,17.37A38.64,38.64,0,0,0,1750,396.66a40.48,40.48,0,0,0,18.85-4.2m-43.76,12a53.79,53.79,0,0,1-18.72-14.13A63.35,63.35,0,0,1,1694.59,369a88.84,88.84,0,0,1,0-53.29,63.71,63.71,0,0,1,11.78-21.32,53.76,53.76,0,0,1,18.72-14.12A58.87,58.87,0,0,1,1750,275.2a58,58,0,0,1,24.79,5.1,54,54,0,0,1,18.58,14.13,62,62,0,0,1,11.65,21.33,91.73,91.73,0,0,1,0,53.29,62,62,0,0,1-11.66,21.31,54.06,54.06,0,0,1-18.6,14.13,58,58,0,0,1-24.79,5.06,58.8,58.8,0,0,1-24.91-5.09"/><path class="cls-1" d="M1846.08,278.22v19.33h.5a52.86,52.86,0,0,1,15.63-15.85q9.42-6.19,23.3-6.19a38.42,38.42,0,0,1,21.06,5.83q9.17,5.84,13.13,17.49h.5a46,46,0,0,1,17-17.22,47.39,47.39,0,0,1,24.17-6.06,43.6,43.6,0,0,1,15.24,2.61,34.28,34.28,0,0,1,12.27,7.69,35.91,35.91,0,0,1,8.18,12.52,45.89,45.89,0,0,1,3,17.11l0,91h-15.12l0-89.73q0-14.38-7.55-21.21t-19.46-6.82a35.82,35.82,0,0,0-13.39,2.48,34.49,34.49,0,0,0-11,7.06,31.52,31.52,0,0,0-7.56,11.39,40.69,40.69,0,0,0-2.74,15.25l0,81.55h-15.37l0-89.74q0-14.39-7.3-21.2T1882,288.65a34,34,0,0,0-13.38,2.72,38.15,38.15,0,0,0-11.54,7.55,35.74,35.74,0,0,0-8.06,11.53,35,35,0,0,0-3,14.37l0,81.56h-15.37l.07-128.16Z"/></svg>