<svg id="Layer_1" data-name="Layer 1" xmlns="http://www.w3.org/2000/svg" viewBox="0 0 379.7 431.76"><defs><style>.cls-1{fill:#00142e;}</style></defs><title>Artboard 1</title><path class="cls-1" d="M168,316.68l50.34-87.78,50.25,87.82ZM156.87,121.45l54,94.43-54.13,94.37-55.45-94.43Zm61.5,81.42L168.11,115l100.6,0Zm7.45,13,59.67-104a6.47,6.47,0,0,0-5.61-9.68L157,102.09h0a6.45,6.45,0,0,0-5.57,3.19L88.25,212.54a6.5,6.5,0,0,0,0,6.56l63,107.32a6.49,6.49,0,0,0,5.57,3.2h0l122.89.05a6.47,6.47,0,0,0,5.61-9.68Z"/></svg>